# xmcd
#
# Track frame offsets: 
#        150
#        12012
#        23357
#        34528
#        44453
#        55154
#        68439
#        80043
#        92775
#        104040
#        117290
#        129070
#        139124
#        150939
#        162990
#        174970
#        184754
#        195725
#        209139
#        220263
#        231081
#        241464
#        253326
#        264918
#        274467
#        284850
#        296138
#        308435
#        320885
#
# Disc length: 4468 seconds
#
# Revision: 0
# Processed by: cddbd v1.5.2PL0 Copyright (c) Steve Scherf et al.
# Submitted via: ExactAudioCopy v1.3
#
DISCID=a911721d
DTITLE=Webb Pierce - The Chronogical Classics 1953-1955 (Warped 5392)
DYEAR=2009
DGENRE=Country
TTITLE0=There's A Better Home (1953)
TTITLE1=Mother Call My Name In Prayer (1953)
TTITLE2=I'm Walking The Dog (1953)
TTITLE3=You Just Can't Be True (1953)
TTITLE4=Slowly (1953)
TTITLE5=Broken Engagement (1953)
TTITLE6=Slowly (Alt. Take) (1953)
TTITLE7=Even Tho' (1953)
TTITLE8=My New Love Affair (1954)
TTITLE9=Sparklig Brown Eyes (1954)
TTITLE10=Bugle Call From Heaven (1954)
TTITLE11=Thank You, Dear Lord (1954)
TTITLE12=Kneel At The Cross (1954)
TTITLE13=Leaning On The Everlasting Arms (1954)
TTITLE14=You're Not Mine Anymore (1954)
TTITLE15=I'm Gonna Fall Out Of Love With You (1954)
TTITLE16=You Good For Nothing Heart (1954)
TTITLE17=Just Imagination (1954)
TTITLE18=I Love You Dear (1954)
TTITLE19=More And More (1954)
TTITLE20=I Found Someone That's True (1954)
TTITLE21=The Waltz You Saved For Me (1954)
TTITLE22=One Day Later (1954)
TTITLE23=In The Jailhouse Now (1954)
TTITLE24=Sneakin' All Around (1954)
TTITLE25=I Don't Care (1955)
TTITLE26=Just How Long (1955)
TTITLE27=Yes, I Know Why (I Want To Cry) (1955)
TTITLE28=Little Rosa (1955)
EXTD=
EXTT0=
EXTT1=
EXTT2=
EXTT3=
EXTT4=
EXTT5=
EXTT6=
EXTT7=
EXTT8=
EXTT9=
EXTT10=
EXTT11=
EXTT12=
EXTT13=
EXTT14=
EXTT15=
EXTT16=
EXTT17=
EXTT18=
EXTT19=
EXTT20=
EXTT21=
EXTT22=
EXTT23=
EXTT24=
EXTT25=
EXTT26=
EXTT27=
EXTT28=
PLAYORDER=
